<?xml version="1.0" encoding="UTF-8"?>
<svg xmlns="http://www.w3.org/2000/svg" viewBox="0 0 800 500" role="img" aria-label="Familie im Park: Kind mit rotem Ball auf Gras im Vordergrund, Eltern auf Decke dahinter, Baeume und blauer Himmel">
  <defs>
    <linearGradient id="sky" x1="0" y1="0" x2="0" y2="1">
      <stop offset="0%" stop-color="#7EC4E8"/>
      <stop offset="100%" stop-color="#C5E6F4"/>
    </linearGradient>
    <linearGradient id="grass" x1="0" y1="0" x2="0" y2="1">
      <stop offset="0%" stop-color="#9DD17B"/>
      <stop offset="100%" stop-color="#5FA547"/>
    </linearGradient>
    <radialGradient id="sun" cx="0.5" cy="0.5" r="0.5">
      <stop offset="0%" stop-color="#FFE680" stop-opacity="1"/>
      <stop offset="60%" stop-color="#FFD24A" stop-opacity="0.6"/>
      <stop offset="100%" stop-color="#FFD24A" stop-opacity="0"/>
    </radialGradient>
  </defs>
  <rect width="800" height="280" fill="url(#sky)"/>
  <circle cx="640" cy="80" r="42" fill="#FFD24A"/>
  <circle cx="640" cy="80" r="80" fill="url(#sun)" opacity="0.7"/>
  <g fill="#FFFFFF" opacity="0.92">
    <ellipse cx="120" cy="90" rx="58" ry="20"/>
    <ellipse cx="155" cy="80" rx="40" ry="18"/>
    <ellipse cx="450" cy="60" rx="48" ry="16"/>
    <ellipse cx="475" cy="68" rx="32" ry="14"/>
  </g>
  <path d="M0 270 Q200 225 400 250 T800 235 L800 285 L0 285 Z" fill="#7BB85F" opacity="0.55"/>
  <rect x="0" y="280" width="800" height="220" fill="url(#grass)"/>
  <g stroke="#5FA547" stroke-width="1.4" opacity="0.4">
    <path d="M40 320 l4 -10 M48 325 l3 -8 M62 332 l5 -12 M85 318 l4 -9 M120 332 l4 -10 M150 324 l3 -8 M210 360 l5 -10 M260 350 l4 -9 M340 380 l4 -11 M420 370 l4 -10 M510 380 l3 -9 M600 388 l4 -10 M690 372 l5 -11 M730 410 l4 -10 M770 425 l3 -9"/>
  </g>
  <g>
    <rect x="55" y="210" width="14" height="78" fill="#6B4423"/>
    <ellipse cx="62" cy="195" rx="48" ry="55" fill="#4E8D3B"/>
    <ellipse cx="48" cy="185" rx="28" ry="32" fill="#5DA346"/>
    <rect x="180" y="195" width="16" height="92" fill="#6B4423"/>
    <ellipse cx="188" cy="175" rx="58" ry="68" fill="#4E8D3B"/>
    <ellipse cx="208" cy="170" rx="34" ry="36" fill="#5DA346"/>
    <rect x="700" y="205" width="14" height="84" fill="#6B4423"/>
    <ellipse cx="707" cy="190" rx="52" ry="60" fill="#4E8D3B"/>
    <ellipse cx="725" cy="185" rx="30" ry="34" fill="#5DA346"/>
    <rect x="540" y="240" width="10" height="48" fill="#6B4423"/>
    <ellipse cx="545" cy="228" rx="32" ry="38" fill="#5DA346"/>
  </g>
  <g transform="translate(620 270)">
    <circle cx="0" cy="-22" r="5" fill="#E8A87C"/>
    <rect x="-4" y="-17" width="8" height="14" rx="2" fill="#3B7ECF"/>
    <rect x="-4" y="-3" width="3" height="10" fill="#2B1F14"/>
    <rect x="1" y="-3" width="3" height="10" fill="#2B1F14"/>
    <ellipse cx="14" cy="2" rx="8" ry="4" fill="#7A5C3F"/>
    <circle cx="22" cy="-2" r="3" fill="#7A5C3F"/>
    <line x1="-6" y1="-8" x2="6" y2="-2" stroke="#3B3B3B" stroke-width="1"/>
  </g>
  <ellipse cx="380" cy="370" rx="180" ry="30" fill="#000" opacity="0.12"/>
  <path d="M210 350 L545 350 L555 395 L200 395 Z" fill="#9C5B3A"/>
  <g stroke="#F5DCB4" stroke-width="6" opacity="0.85">
    <line x1="240" y1="352" x2="245" y2="393"/>
    <line x1="280" y1="352" x2="287" y2="393"/>
    <line x1="320" y1="352" x2="328" y2="393"/>
    <line x1="360" y1="352" x2="370" y2="393"/>
    <line x1="400" y1="352" x2="412" y2="393"/>
    <line x1="440" y1="352" x2="453" y2="393"/>
    <line x1="480" y1="352" x2="495" y2="393"/>
    <line x1="520" y1="352" x2="535" y2="393"/>
  </g>
  <g transform="translate(265 320)">
    <path d="M-22 5 Q-25 35 -20 50 L25 50 Q30 35 22 5 Z" fill="#E27396"/>
    <ellipse cx="-22" cy="20" rx="6" ry="14" fill="#F2C5A8" transform="rotate(15 -22 20)"/>
    <ellipse cx="22" cy="20" rx="6" ry="14" fill="#F2C5A8" transform="rotate(-15 22 20)"/>
    <rect x="-3" y="-8" width="6" height="10" fill="#F2C5A8"/>
    <circle cx="0" cy="-18" r="14" fill="#F2C5A8"/>
    <path d="M-14 -22 Q-12 -36 0 -36 Q14 -36 14 -22 Q15 -10 6 -8 L-6 -8 Q-15 -10 -14 -22 Z" fill="#5C3A21"/>
    <path d="M-5 -14 Q0 -10 5 -14" stroke="#2B1F14" stroke-width="1.6" fill="none" stroke-linecap="round"/>
    <circle cx="-4" cy="-19" r="1.2" fill="#2B1F14"/>
    <circle cx="4" cy="-19" r="1.2" fill="#2B1F14"/>
  </g>
  <g transform="translate(470 318)">
    <path d="M-24 5 Q-26 30 -22 52 L26 52 Q30 30 24 5 Z" fill="#3F8DCB"/>
    <rect x="-22" y="40" width="44" height="14" fill="#345E8C"/>
    <ellipse cx="-24" cy="22" rx="6" ry="14" fill="#E8A87C" transform="rotate(20 -24 22)"/>
    <ellipse cx="24" cy="22" rx="6" ry="14" fill="#E8A87C" transform="rotate(-20 24 22)"/>
    <rect x="-4" y="-9" width="8" height="11" fill="#E8A87C"/>
    <circle cx="0" cy="-19" r="15" fill="#E8A87C"/>
    <path d="M-15 -22 Q-13 -36 0 -38 Q15 -36 15 -22 L13 -16 Q12 -22 0 -22 Q-12 -22 -13 -16 Z" fill="#3A2818"/>
    <path d="M-5 -14 Q0 -9 5 -14" stroke="#2B1F14" stroke-width="1.7" fill="none" stroke-linecap="round"/>
    <circle cx="-5" cy="-20" r="1.3" fill="#2B1F14"/>
    <circle cx="5" cy="-20" r="1.3" fill="#2B1F14"/>
  </g>
  <g transform="translate(355 345)">
    <ellipse cx="0" cy="22" rx="22" ry="6" fill="#000" opacity="0.15"/>
    <rect x="-20" y="0" width="40" height="22" rx="3" fill="#B07842"/>
    <path d="M-18 0 Q0 -16 18 0" stroke="#8F5E32" stroke-width="3" fill="none"/>
  </g>
  <g transform="translate(180 405)">
    <ellipse cx="0" cy="78" rx="42" ry="7" fill="#000" opacity="0.22"/>
    <rect x="-13" y="42" width="11" height="42" rx="3" fill="#3B6FAE" transform="rotate(-15 -8 42)"/>
    <rect x="2" y="42" width="11" height="44" rx="3" fill="#3B6FAE" transform="rotate(20 7 42)"/>
    <path d="M-22 0 L22 0 L26 50 L-26 50 Z" fill="#F2C94C"/>
    <ellipse cx="-26" cy="6" rx="6" ry="22" fill="#F4C9A8" transform="rotate(-50 -26 6)"/>
    <ellipse cx="26" cy="6" rx="6" ry="22" fill="#F4C9A8" transform="rotate(50 26 6)"/>
    <circle cx="-50" cy="-12" r="6" fill="#F4C9A8"/>
    <circle cx="50" cy="-12" r="6" fill="#F4C9A8"/>
    <rect x="-4" y="-12" width="8" height="14" fill="#F4C9A8"/>
    <circle cx="0" cy="-26" r="18" fill="#F4C9A8"/>
    <path d="M-15 -32 Q-10 -44 0 -44 Q10 -44 15 -32 Q15 -26 10 -26 L-10 -26 Q-15 -26 -15 -32 Z" fill="#5C3A21"/>
    <path d="M-7 -22 Q0 -14 7 -22" stroke="#2B1F14" stroke-width="2.2" fill="none" stroke-linecap="round"/>
    <path d="M-8 -28 Q-5 -31 -2 -28" stroke="#2B1F14" stroke-width="1.8" fill="none" stroke-linecap="round"/>
    <path d="M2 -28 Q5 -31 8 -28" stroke="#2B1F14" stroke-width="1.8" fill="none" stroke-linecap="round"/>
  </g>
  <g transform="translate(280 460)">
    <ellipse cx="0" cy="22" rx="22" ry="5" fill="#000" opacity="0.22"/>
    <circle cx="0" cy="0" r="26" fill="#E63946"/>
    <ellipse cx="-7" cy="-9" rx="7" ry="4" fill="#FFB3B8" opacity="0.7"/>
    <path d="M-26 0 Q0 7 26 0" stroke="#A82532" stroke-width="1.2" fill="none" opacity="0.5"/>
  </g>
  <g transform="translate(20 20)">
    <rect x="0" y="0" width="138" height="26" rx="13" fill="#FFFFFF" opacity="0.85"/>
    <text x="69" y="18" text-anchor="middle" font-family="Arial, sans-serif" font-size="13" font-weight="700" fill="#2E7D32">FAMILY - PARK</text>
  </g>
</svg>
